<?xml version="1.0" encoding="utf-8"?><svg version="1" xmlns="http://www.w3.org/2000/svg" width="25.988" height="29.922" viewBox="0 0 25.988 29.922"><path d="M0 0h25.988v29.922l-12.994-4.81L0 29.92V0zm20.154 17.895c-.24 0-.51-.006-.8-.018-.294-.014-.51-.05-.646-.116-.225-.1-.39-.26-.5-.46-.107-.21-.162-.49-.162-.85 0-.39.018-1.21.055-2.454.04-1.243.06-2.317.06-3.225 0-.857-.14-1.555-.44-2.09-.29-.533-.68-.94-1.18-1.22-.52-.29-1.102-.48-1.76-.57-.642-.095-1.36-.14-2.14-.14-.56 0-1.17.066-1.83.197-.66.135-1.24.32-1.742.56-.513.235-.95.53-1.305.887s-.535.76-.535 1.21c0 .52.173.946.52 1.27.345.324.856.487 1.532.487.475 0 .826-.042 1.056-.13.23-.09.436-.213.62-.374.14-.12.24-.28.313-.485.07-.202.11-.372.11-.51 0-.305-.06-.62-.17-.95-.115-.33-.184-.573-.208-.734.145-.107.335-.21.57-.31.235-.1.53-.15.884-.15.396 0 .71.09.954.264.24.18.417.392.53.65.104.224.17.5.205.83.03.327.05.593.05.795v1.15c-.47.225-1.202.48-2.22.767-1.01.284-1.88.56-2.6.824-.377.144-.725.3-1.043.47-.316.17-.596.38-.838.64-.267.28-.47.605-.616.97-.145.366-.216.81-.216 1.33 0 .91.33 1.64.99 2.19.658.55 1.455.827 2.387.827.63 0 1.116-.04 1.466-.13.35-.09.715-.22 1.09-.393.29-.14.56-.304.816-.495.253-.194.517-.427.79-.7h.07c.17.546.485.965.95 1.26.465.29 1.19.437 2.176.437.536 0 1.045-.06 1.525-.19s.898-.27 1.25-.42v-.88zm-6.02-1.302c-.218.265-.47.487-.755.668-.29.19-.65.28-1.1.28-.42 0-.77-.14-1.06-.42-.29-.28-.43-.74-.43-1.36 0-.47.08-.89.25-1.24.17-.343.4-.632.7-.86.28-.22.642-.42 1.09-.62.44-.194.89-.37 1.34-.522l-.05 4.09z"/></svg>