<svg style="display: none;" aria-hidden="true">
  <symbol id="icon-burger" viewBox="0 0 76.2 69"><path d="M71.9 46H4.3C1.9 46 0 48 0 50.3v3.5C0 56.1 1.9 58 4.3 58h1v1c0 5.5 4.5 9.9 9.9 9.9H61c5.5 0 9.9-4.5 9.9-9.9v-1h1c2.3 0 4.3-1.9 4.3-4.3v-3.5c0-2.2-1.9-4.2-4.3-4.2zM68 59c0 3.8-3.1 6.9-6.9 6.9h-46c-3.8 0-6.9-3.1-6.9-6.9v-1H68v1zm5.2-5.3c0 .7-.6 1.3-1.3 1.3H4.3c-.7 0-1.3-.6-1.3-1.3v-3.5c0-.6.6-1.2 1.3-1.2h67.6c.7 0 1.3.6 1.3 1.3v3.4zm-57-15.8l5.4 4 5.5-4 5.5 4 5.5-4 5.4 4 5.5-4 5.5 4 5.5-4 5.5 4 6.3-4.7-1.7-2.4-4.6 3.3-5.5-4-5.5 4-5.5-4-5.5 4-5.4-4-5.5 4-5.5-4-5.5 4-5.4-4-5.5 4-4.6-3.3-1.8 2.4 6.4 4.7M8.3 31.1h62.6c0-.6.1-1.2.1-1.8v-1.2C70.2 12.5 55.8 0 38.1 0S5.9 12.5 5.2 28.1v1.2c0 .6 0 1.2.1 1.8h3zM38.1 3c16 0 29.2 11.2 29.8 25.1H8.2C8.9 14.2 22.1 3 38.1 3z"/><circle cx="38.1" cy="15" r="2"/><circle cx="30.1" cy="10.1" r="2"/><circle cx="46.1" cy="10.1" r="2"/></symbol>

  <symbol id="icon-calendar" viewBox="0 0 19.875 21.916"><path d="M17.04 2h-2.08V0h-2v2H6.916V0h-2v2h-2.08C1.276 2 0 3.275 0 4.835V19.08c0 1.56 1.275 2.836 2.835 2.836H17.04c1.56 0 2.835-1.275 2.835-2.835V4.84C19.875 3.278 18.6 2 17.04 2zm.835 17.08c0 .454-.383.836-.835.836H2.835c-.452 0-.835-.382-.835-.835V4.84c0-.458.383-.84.835-.84H17.04c.452 0 .835.382.835.835V19.08z"/><path d="M4.917 6.958h2v2h-2zm8.043 0h2v2h-2zm-4.022 0h2v2h-2zm-4.02 4h2v2h-2zm8.042 0h2v2h-2zm-4.022 0h2v2h-2zm-4.02 3.984h2v2h-2zm8.042 0h2v2h-2zm-4.022 0h2v2h-2z"/></symbol>

  <symbol id="icon-cross" viewBox="0 0 22.199 22.199"><path d="M22.2 2.804L19.395 0 11.1 8.297 2.804 0 0 2.803 8.297 11.1 0 19.396 2.803 22.2l8.297-8.3 8.296 8.297 2.803-2.804-8.3-8.296"/></symbol>

  <symbol id="icon-facebook" viewBox="0 0 8.672 18.944"><path d="M6.275 3.356h2.398V0H5.795C2.655.18 1.54 2.387 1.948 6.114H0v3.518h1.96v9.312h3.836V9.632h2.857V6.114H5.787c-.022-1.045-.037-2.405.488-2.758z"/></symbol>

  <symbol id="icon-figt" viewBox="0 0 63 75.084"><path fill-rule="evenodd" clip-rule="evenodd" d="M60.165 22.23H35.758C49.36 15.415 50.446 11.115 49.946 8.71c-1.145-3.916-5.605-6.938-9.85-5.34-5.483 2.062-7.027 10.26-8.512 16.19-1.894-6-3.726-13.65-8.01-17.526C22.33.91 20.524-.203 17.896.03c-3.965.353-9.652 5.318-7.344 10.85 2.217 5.313 9.54 8.67 14.354 11.35H2.834C1.274 22.23 0 23.506 0 25.065V36.25c0 1.56 1.275 2.834 2.835 2.834h.27v36h56.958v-36h.103c1.56 0 2.835-1.274 2.835-2.833V25.07c0-1.56-1.27-2.835-2.83-2.835zm-18.4-16.357c2.07-.306 4.908 1.283 5.176 3.17.39 2.724-3.34 5.193-5 6.344-2.483 1.723-4.85 2.61-7.176 4.006.87-3.645 2.51-12.854 7.01-13.52zM19.233 15.72c-2.19-1.466-6.444-4.377-6.342-7.677.11-3.552 5.66-6.49 8.68-3.84 3.8 3.332 5.63 10.973 7.01 16.358-3.2-1.51-6.23-2.75-9.34-4.84zm5.882 56.427H6.042V39.084h19.072v33.063zm0-36.063H3V25.23h22.114v10.854zm10 0v36.062h-7.062V25.23h7.063v10.854zm22.01 36.063h-19.07V39.084h19.07v33.063zM60 36.084H38.053V25.23H60v10.854z"/></symbol>

  <symbol id="icon-house" viewBox="0 0 74.696 72.345"><path d="M29.503 43.845v21.5h16V41.407h-16v2.438zm13.063 18.562H32.44V44.345h10.126v18.062z"/><path d="M72.62 39.44l2.076-2.078-9.908-9.913V.47H50.974v13.162L37.35 0 0 37.363l2.077 2.078 7.832-7.83v37.8H5.97v2.94h63.876v-2.94h-5.06v-37.8l7.834 7.83zM53.913 3.408h7.938v21.104l-7.93-7.94V3.408zm7.937 66H12.846V28.67l24.502-24.5 24.502 24.5v40.737z"/><path d="M29.753 27.21c0 4.28 3.47 7.75 7.75 7.75s7.75-3.47 7.75-7.75-3.47-7.75-7.75-7.75-7.75 3.47-7.75 7.75zm7.75-4.97c2.745 0 4.97 2.226 4.97 4.97s-2.225 4.97-4.97 4.97c-2.745 0-4.97-2.224-4.97-4.97s2.226-4.97 4.97-4.97zM16.91 41.407h3v3.938h-3zm5.936 0h3v3.938h-3zm-5.936 6h3v3.938h-3zm5.936 0h3v3.938h-3zm26-6h3v3.938h-3zm5.938 0h3v3.938h-3zm-5.938 6h3v3.938h-3zm5.938 0h3v3.938h-3z"/></symbol>

  <symbol id="icon-menu" viewBox="0 0 22.928 21.982"><path d="M0 0h22.928v3.964H0zm0 9.01h22.928v3.963H0zm0 9.008h22.928v3.964H0z"/></symbol>

  <symbol id="" ></symbol>

  <symbol id="" ></symbol>

  <symbol id="" ></symbol>

  <symbol id="" ></symbol>

  <symbol id="" ></symbol>

  <symbol id="" ></symbol>

  <symbol id="" ></symbol>

  <symbol id="" ></symbol>
</svg>